<svg xmlns="http://www.w3.org/2000/svg" xmlns:xlink="http://www.w3.org/1999/xlink" viewBox="0 0 34.26 28.6"><defs><style>.cls-1{fill:#010101;}.cls-2{fill:none;}</style><symbol id="_95301593_Data_File_Excel_BOW_OL-2" data-name="95301593_Data_File_Excel_BOW_OL" viewBox="0 0 34.26 28.6"><path class="cls-1" d="M26.37,8.34l-5.6-5.6a3,3,0,0,0-1.9-.79H8.74A1.64,1.64,0,0,0,7.1,3.58V25a1.64,1.64,0,0,0,1.64,1.64H25.52A1.64,1.64,0,0,0,27.16,25V10.24A3,3,0,0,0,26.37,8.34ZM25.23,9h-4.8a.37.37,0,0,1-.36-.36V3.84Zm.29,16.37H8.74A.37.37,0,0,1,8.38,25V3.58a.37.37,0,0,1,.36-.36H18.79V8.64a1.64,1.64,0,0,0,1.64,1.64h5.45V25A.37.37,0,0,1,25.52,25.38Z"/><path class="cls-1" d="M10.57,20.88a.36.36,0,0,1-.33.19H9.85c-.13,0-.21-.07-.21-.17a.25.25,0,0,1,0-.13l1.82-3L9.83,15.09a.31.31,0,0,1-.05-.14.17.17,0,0,1,.18-.17h.43a.37.37,0,0,1,.32.19L11.95,17,13.15,15a.38.38,0,0,1,.34-.19h.35c.17,0,.23.06.23.17a.34.34,0,0,1,0,.14L12.4,17.8l1.78,3a.25.25,0,0,1,0,.13c0,.1-.07.17-.21.17h-.39a.36.36,0,0,1-.33-.19l-1.34-2.32Z"/><path class="cls-1" d="M17.37,21.07a2.5,2.5,0,0,1-1.69-.47,1.92,1.92,0,0,1-.57-1.52v-4a.26.26,0,0,1,.3-.3h.22a.27.27,0,0,1,.3.3v3.79a1.4,1.4,0,0,0,.33,1.09,1.89,1.89,0,0,0,1.23.32H19c.13,0,.3,0,.3.23v.27a.28.28,0,0,1-.3.31Z"/><path class="cls-1" d="M20.85,16.46v.08a.76.76,0,0,0,.56.8,6.51,6.51,0,0,0,1.06.14,4.71,4.71,0,0,1,1.16.18,1.19,1.19,0,0,1,.68.56,2.25,2.25,0,0,1,.22,1.1,2,2,0,0,1-.36,1.15,2.32,2.32,0,0,1-1.94.59l-1.67,0c-.23,0-.35-.07-.35-.29v-.24c0-.19.11-.29.35-.29s1.19,0,1.81,0a1.55,1.55,0,0,0,1.17-.33.89.89,0,0,0,.19-.63c0-.44-.11-.8-.59-.92A6.85,6.85,0,0,0,22,18.25a4.31,4.31,0,0,1-1.12-.18,1.25,1.25,0,0,1-.64-.59,1.87,1.87,0,0,1-.2-.93v-.11a1.75,1.75,0,0,1,.34-1.08,2.27,2.27,0,0,1,1.89-.59H24a.27.27,0,0,1,.29.3v.26a.23.23,0,0,1-.25.26H22.14a1.48,1.48,0,0,0-1.12.31A.94.94,0,0,0,20.85,16.46Z"/><g id="Box10x12_Corner_Marks" data-name="Box10x12 Corner Marks"><polygon class="cls-2" points="34.26 3.83 34.01 3.83 34.01 0.25 30.43 0.25 30.43 0 34.26 0 34.26 3.83"/><polygon class="cls-2" points="34.26 28.6 30.43 28.6 30.43 28.35 34.01 28.35 34.01 24.77 34.26 24.77 34.26 28.6"/><polygon class="cls-2" points="3.83 28.6 0 28.6 0 24.77 0.25 24.77 0.25 28.35 3.83 28.35 3.83 28.6"/><polygon class="cls-2" points="0.25 3.83 0 3.83 0 0 3.83 0 3.83 0.25 0.25 0.25 0.25 3.83"/></g></symbol></defs><title>95301593_File_Excel</title><g id="Layer_2" data-name="Layer 2"><g id="_95301593_Data_File_Excel" data-name="95301593_Data_File_Excel"><g id="_95301593_Data_File_Excel_BOW_OL" data-name="95301593_Data_File_Excel BOW_OL"><use id="_95301593_Data_File_Excel_BOW_OL-4" data-name="95301593_Data_File_Excel_BOW_OL" width="34.26" height="28.6" xlink:href="#_95301593_Data_File_Excel_BOW_OL-2"/></g></g></g></svg>